<svg xmlns="http://www.w3.org/2000/svg" viewBox="0 0 32 32" fill="none">
  <rect width="32" height="32" rx="8" fill="#1e1b4b"/>
  <path d="M16 6c-1.5 0-2.8.6-3.8 1.5C11.2 8.5 10.5 10 10.5 11.5c0 .5.1 1 .2 1.5H9c-.6 0-1 .4-1 1v2c0 .6.4 1 1 1h1v7c0 1.7 1.3 3 3 3h6c1.7 0 3-1.3 3-3v-7h1c.6 0 1-.4 1-1v-2c0-.6-.4-1-1-1h-1.7c.1-.5.2-1 .2-1.5 0-1.5-.7-3-1.7-4C18.8 6.6 17.5 6 16 6z" fill="#a855f7"/>
  <circle cx="13" cy="19" r="1.5" fill="#1e1b4b"/>
  <circle cx="19" cy="19" r="1.5" fill="#1e1b4b"/>
  <path d="M8 12h2M22 12h2M8 16h2M22 16h2" stroke="#a855f7" stroke-width="1.5" stroke-linecap="round"/>
</svg>
